<?xml version="1.0" encoding="utf-8"?>
<!-- Generator: Adobe Illustrator 21.1.0, SVG Export Plug-In . SVG Version: 6.00 Build 0)  -->
<svg version="1.1" id="Capa_1" xmlns="http://www.w3.org/2000/svg" xmlns:xlink="http://www.w3.org/1999/xlink" x="0px" y="0px"
	 viewBox="0 0 1052 409" style="enable-background:new 0 0 1052 409;" xml:space="preserve">
<g>
	<g>
		<path d="M14.1,123.9l97-50v14.4l-81.8,41v0.4l81.8,41v14.4l-97-50V123.9z"/>
		<path d="M124.8,205.3l58.4-151.6h14.2l-58.6,151.6H124.8z"/>
		<path d="M346.1,185.4v-17.8c-5.5,7.4-12.4,13.2-20.6,17.4c-8.2,4.3-17.1,6.4-26.6,6.4c-16.6,0-30.6-6-42.2-17.9
			c-11.6-12-17.3-26.4-17.3-43.4c0-17,5.8-31.5,17.3-43.5c11.5-12,25.6-18.1,42.2-18.1c9.5,0,18.4,2.2,26.6,6.5
			c8.2,4.3,15.1,10.2,20.6,17.6V21.8c0-1.7,0.6-3.1,1.9-4.3c1.3-1.2,2.7-1.8,4.4-1.8c1.7,0,3.1,0.6,4.3,1.8c1.2,1.2,1.8,2.6,1.8,4.3
			v163.6c0,1.7-0.6,3.1-1.8,4.3c-1.2,1.2-2.6,1.8-4.3,1.8c-1.7,0-3.1-0.6-4.4-1.8C346.7,188.5,346.1,187.1,346.1,185.4z
			 M251.8,130.1c0,13.6,4.6,25.2,13.9,34.8c9.3,9.5,20.3,14.3,33.1,14.3c12.8,0,23.8-4.6,32.9-13.7c9.1-9.1,13.9-20.2,14.4-33.2v-4
			c-0.5-13.2-5.3-24.4-14.4-33.6c-9.1-9.2-20.1-13.8-32.9-13.8c-12.8,0-23.8,4.8-33.1,14.4C256.4,104.8,251.8,116.4,251.8,130.1z"/>
		<path d="M410.9,141.2v-67c0-1.7,0.6-3.1,1.8-4.3c1.2-1.2,2.6-1.8,4.3-1.8c1.7,0,3.1,0.6,4.3,1.8c1.2,1.2,1.8,2.6,1.8,4.3v67
			c0,10.5,3.7,19.5,11,26.9c7.4,7.4,16.2,11.1,26.6,11.3c10.5-0.2,19.5-3.9,27-11.3c7.4-7.4,11.2-16.3,11.2-26.9v-67
			c0-1.7,0.6-3.1,1.9-4.3c1.3-1.2,2.7-1.8,4.4-1.8s3.1,0.6,4.3,1.8c1.2,1.2,1.8,2.6,1.8,4.3v67c0,13.9-4.9,25.7-14.7,35.5
			c-9.8,9.8-21.6,14.7-35.5,14.7c-13.9,0-25.7-4.9-35.4-14.7C415.7,167,410.9,155.1,410.9,141.2z"/>
		<path d="M567.2,236.8V74.5c0-1.7,0.6-3.1,1.8-4.3c1.2-1.2,2.6-1.8,4.3-1.8c1.7,0,3.1,0.6,4.4,1.8c1.3,1.2,1.9,2.6,1.9,4.3v17.8
			c5.4-7.4,12.1-13.2,20.3-17.4c8.2-4.3,17-6.4,26.4-6.4c16.6,0,30.6,5.9,42.2,17.8c11.5,11.9,17.3,26.2,17.3,43
			c0,16.8-5.8,31.2-17.3,43.3c-11.5,12-25.6,18.1-42.2,18.1c-9.4,0-18.2-2.2-26.4-6.5c-8.2-4.4-15-10.2-20.3-17.6v70.3
			c0,1.7-0.6,3.1-1.9,4.3c-1.3,1.2-2.7,1.8-4.4,1.8c-1.7,0-3.1-0.6-4.3-1.8C567.8,239.9,567.2,238.5,567.2,236.8z M579.5,127.4v2
			c0,13.5,4.6,25.1,13.8,34.6c9.2,9.5,20.2,14.4,32.9,14.6c13.1-0.2,24.2-5,33.4-14.6c9.2-9.5,13.8-21.1,13.8-34.6
			c0-13.6-4.6-25.1-13.8-34.5c-9.2-9.5-20.2-14.2-32.9-14.2c-12.7,0-23.6,4.5-32.8,13.6C584.8,103.3,580,114.4,579.5,127.4z"/>
		<path d="M734.6,185.4V21.8c0-1.7,0.6-3.1,1.8-4.3c1.2-1.2,2.6-1.8,4.3-1.8c1.7,0,3.1,0.6,4.4,1.8c1.3,1.2,1.9,2.6,1.9,4.3v163.6
			c0,1.7-0.6,3.1-1.9,4.3c-1.3,1.2-2.7,1.8-4.4,1.8c-1.7,0-3.1-0.6-4.3-1.8C735.2,188.5,734.6,187.1,734.6,185.4z"/>
		<path d="M888.2,70.2c1.2-1.2,2.6-1.8,4.3-1.8c1.7,0,3.1,0.6,4.3,1.8c1.2,1.2,1.8,2.6,1.8,4.3v110.9c0,1.7-0.6,3.1-1.8,4.3
			c-1.2,1.2-2.6,1.8-4.3,1.8c-1.7,0-3.1-0.6-4.3-1.8c-1.2-1.2-1.8-2.6-1.8-4.3v-18.3c-5.4,7.5-12.1,13.5-20.2,17.8
			c-8.1,4.4-16.8,6.5-26,6.5c-16.1,0-29.8-6-41.2-18.1c-11.4-12-17.1-26.5-17.1-43.4c0-16.9,5.7-31.4,17.1-43.4
			c11.4-12,25.1-18.1,41.2-18.1c9.2,0,17.9,2.2,26,6.5c8.1,4.3,14.8,10.2,20.2,17.6V74.5C886.4,72.8,887,71.4,888.2,70.2z
			 M794.1,129.9c0,13.7,4.6,25.4,13.7,35c9.1,9.6,20,14.4,32.6,14.4c12.6,0,23.5-4.8,32.5-14.4c9-9.6,13.5-21.3,13.5-35
			c0-13.7-4.5-25.4-13.5-35.1c-9-9.7-19.9-14.6-32.5-14.6c-12.6,0-23.5,4.9-32.6,14.6C798.6,104.5,794.1,116.2,794.1,129.9z"/>
		<path d="M1037.9,135.4l-97,49.8v-14.4l82.4-41v-0.4l-82.4-41V73.9l97,49.8V135.4z"/>
	</g>
	<g>
		<path d="M143,375.6v-5.2c-1.6,2.1-3.6,3.8-5.9,5c-2.4,1.2-4.9,1.8-7.7,1.8c-4.8,0-8.8-1.7-12.2-5.2c-3.3-3.5-5-7.6-5-12.6
			c0-4.9,1.7-9.1,5-12.6c3.3-3.5,7.4-5.2,12.2-5.2c2.8,0,5.3,0.6,7.7,1.9c2.4,1.3,4.4,3,5.9,5.1v-20.5c0-0.5,0.2-0.9,0.5-1.2
			c0.4-0.3,0.8-0.5,1.3-0.5c0.5,0,0.9,0.2,1.2,0.5c0.3,0.3,0.5,0.7,0.5,1.2v47.3c0,0.5-0.2,0.9-0.5,1.2c-0.3,0.3-0.8,0.5-1.2,0.5
			c-0.5,0-0.9-0.2-1.3-0.5C143.1,376.5,143,376.1,143,375.6z M115.7,359.6c0,3.9,1.3,7.3,4,10c2.7,2.8,5.9,4.1,9.6,4.1
			c3.7,0,6.9-1.3,9.5-4c2.6-2.6,4-5.8,4.2-9.6v-1.2c-0.2-3.8-1.5-7.1-4.2-9.7c-2.6-2.7-5.8-4-9.5-4c-3.7,0-6.9,1.4-9.6,4.2
			C117,352.3,115.7,355.7,115.7,359.6z"/>
		<path d="M162.5,333.6V332c0-0.5,0.2-0.9,0.5-1.2c0.3-0.3,0.7-0.5,1.2-0.5c0.5,0,0.9,0.2,1.3,0.5c0.4,0.3,0.5,0.8,0.5,1.2v1.7
			c0,0.5-0.2,1-0.5,1.3c-0.4,0.4-0.8,0.5-1.3,0.5c-0.5,0-0.9-0.2-1.2-0.5C162.6,334.6,162.5,334.2,162.5,333.6z M162.5,375.6v-32.1
			c0-0.5,0.2-0.9,0.5-1.2c0.3-0.3,0.8-0.5,1.3-0.5c0.5,0,0.9,0.2,1.3,0.5c0.3,0.3,0.5,0.7,0.5,1.2v32.1c0,0.5-0.2,0.9-0.5,1.2
			c-0.4,0.3-0.8,0.5-1.3,0.5c-0.5,0-0.9-0.2-1.2-0.5C162.6,376.5,162.5,376.1,162.5,375.6z"/>
		<path d="M180.5,372.3c-0.8-0.7-0.9-1.5-0.2-2.3c0.3-0.4,0.7-0.6,1.2-0.7c0.5,0,0.9,0.1,1.3,0.4c3.8,2.8,7.2,4.1,10.3,4.1
			c3.1,0,5.5-0.7,7.3-2.2c1.8-1.2,2.7-2.6,2.6-4.2c0-1.6-0.8-3.1-2.4-4.3c-1.6-1.3-4.1-2.2-7.7-2.8l-0.1-0.1c-3.8-0.7-6.5-1.6-8-2.8
			c-2.6-1.5-3.8-3.6-3.8-6.4c0-2.8,1.3-5.1,3.8-7c2.3-1.6,5.2-2.4,8.7-2.4c1.4,0,2.8,0.2,4.2,0.7c1.4,0.5,2.5,0.9,3.3,1.3
			c0.7,0.4,1.8,1,3.1,1.8c0.4,0.3,0.6,0.7,0.7,1.2c0.1,0.5,0,0.9-0.2,1.3c-0.2,0.4-0.6,0.6-1.1,0.7c-0.5,0.1-0.9,0-1.3-0.2
			c-1.2-0.8-2.1-1.4-2.7-1.8c-0.6-0.4-1.5-0.8-2.6-1.2c-1.2-0.4-2.3-0.6-3.3-0.6c-2.8,0-5,0.6-6.6,1.9c-1.6,1.3-2.4,2.6-2.4,4
			s0.7,2.6,2,3.7c1.7,1.2,4.1,2,7.3,2.5h0.1c3.1,0.5,6,1.4,8.6,2.9c2.7,1.7,4,4.1,4,7c0,2.9-1.3,5.4-4,7.3c-2.6,2-5.6,2.9-9,2.9
			C189.1,377.3,184.7,375.6,180.5,372.3z"/>
		<path d="M250.3,358.4v0.3c0,0.5-0.2,0.9-0.5,1.2c-0.3,0.3-0.8,0.4-1.2,0.4h-29.2c0.2,3.9,1.6,7.1,4.3,9.7c2.7,2.6,5.8,3.9,9.5,3.9
			c2.4,0,4.6-0.6,6.6-1.7c2-1.2,3.7-2.7,4.9-4.7c0.6-1,1.4-1.2,2.3-0.6c1,0.7,1.2,1.5,0.6,2.5c-1.6,2.5-3.6,4.4-6.1,5.9
			c-2.5,1.5-5.3,2.2-8.2,2.2c-4.8,0-8.9-1.7-12.2-5.2c-3.4-3.5-5-7.6-5-12.6c0-4.9,1.7-9.1,5-12.6c3.4-3.5,7.4-5.2,12-5.2
			c4.7,0,8.6,1.6,11.9,4.8C248.1,349.8,249.9,353.7,250.3,358.4z M241.9,348.6c-2.5-2.2-5.4-3.3-8.7-3.3c-3.3,0-6.2,1.1-8.7,3.2
			c-2.5,2.1-4.1,4.9-4.8,8.3h26.9C245.9,353.5,244.4,350.8,241.9,348.6z"/>
		<path d="M264,377.4c-0.5-0.1-0.9-0.5-1.2-0.9c0,0-0.1-0.1-0.1-0.2c0-0.1,0-0.1-0.1-0.2v-32.4c0-0.5,0.2-0.9,0.5-1.2
			c0.3-0.3,0.8-0.5,1.2-0.5c0.5,0,0.9,0.2,1.2,0.5c0.3,0.3,0.5,0.7,0.5,1.2v3.4c2.8-3.4,6.4-5.1,10.6-5.1c4.2,0,7.8,1.4,10.6,4.2
			c2.8,2.8,4.2,6.2,4.2,10.2v19.3c0,0.5-0.2,0.9-0.5,1.2c-0.3,0.3-0.8,0.5-1.2,0.5c-0.5,0-0.9-0.2-1.2-0.5c-0.3-0.3-0.5-0.8-0.5-1.2
			v-19.3c0-3-1.1-5.6-3.2-7.7c-2.1-2.1-4.7-3.2-7.7-3.2c-3,0-5.6,1.1-7.7,3.2c-2.1,2.1-3.2,4.7-3.3,7.8v19.6c-0.2,1-0.8,1.4-1.7,1.4
			H264z M270.7,333.6c0.5-0.4,1.1-0.6,1.9-0.6c0.8,0,2.3,0.5,4.5,1.5c2.2,1,3.9,1.5,5.1,1.5c1.2,0,2.2-0.4,3.1-1.2
			c0.9-0.8,1.7-2.2,2.4-4.2c0.1-0.3,0.1-0.6,0.1-0.9c0-0.8-0.4-1.2-1.3-1.2c-0.5,0-1,0.3-1.3,1c-0.4,1-0.9,1.7-1.4,2.1
			c-0.5,0.4-1.1,0.6-1.9,0.6c-0.8,0-2.3-0.5-4.5-1.5c-2.2-1-3.9-1.5-5.1-1.5c-1.2,0-2.2,0.4-3.1,1.2c-0.9,0.8-1.7,2.2-2.4,4.2
			c-0.1,0.3-0.1,0.6-0.1,0.9c0,0.8,0.4,1.2,1.3,1.2c0.5,0,1-0.3,1.3-1C269.7,334.7,270.2,334,270.7,333.6z"/>
		<path d="M310.4,372.1c-3.3-3.5-4.9-7.7-4.9-12.5c0-4.8,1.6-9,4.9-12.5c3.3-3.5,7.3-5.3,11.9-5.3c4.6,0,8.6,1.8,11.9,5.3
			c3.3,3.5,4.9,7.7,4.9,12.5c0,4.8-1.6,9-4.9,12.5c-3.3,3.5-7.3,5.3-11.9,5.3C317.6,377.4,313.6,375.6,310.4,372.1z M322.2,345.2
			c-3.6,0-6.8,1.4-9.4,4.2c-2.6,2.8-4,6.2-4,10.1c0,3.9,1.3,7.3,4,10.1c2.6,2.8,5.8,4.2,9.4,4.2c3.6,0,6.8-1.4,9.4-4.2
			c2.6-2.8,4-6.2,4-10.1c0-3.9-1.3-7.3-4-10.1C329,346.7,325.9,345.2,322.2,345.2z"/>
		<path d="M389.8,335.4v16.4h15.6v2.6h-15.6v16.4H387v-16.4h-15.6v-2.6H387v-16.4H389.8z"/>
		<path d="M438,390.5v-46.9c0-0.5,0.2-0.9,0.5-1.2c0.3-0.3,0.8-0.5,1.2-0.5c0.5,0,0.9,0.2,1.3,0.5c0.4,0.3,0.5,0.7,0.5,1.2v5.2
			c1.5-2.1,3.5-3.8,5.9-5c2.4-1.2,4.9-1.8,7.6-1.8c4.8,0,8.8,1.7,12.2,5.1c3.3,3.4,5,7.6,5,12.4c0,4.9-1.7,9-5,12.5
			c-3.3,3.5-7.4,5.2-12.2,5.2c-2.7,0-5.2-0.6-7.6-1.9c-2.4-1.3-4.3-2.9-5.9-5.1v20.3c0,0.5-0.2,0.9-0.5,1.2
			c-0.4,0.3-0.8,0.5-1.3,0.5c-0.5,0-0.9-0.2-1.2-0.5C438.2,391.4,438,391,438,390.5z M441.6,358.9v0.6c0,3.9,1.3,7.3,4,10
			c2.7,2.8,5.8,4.2,9.5,4.2c3.8,0,7-1.4,9.6-4.2c2.7-2.8,4-6.1,4-10c0-3.9-1.3-7.2-4-10c-2.7-2.7-5.8-4.1-9.5-4.1
			c-3.7,0-6.8,1.3-9.5,3.9C443.1,351.9,441.7,355.1,441.6,358.9z"/>
		<path d="M485.9,375.6v-32c0-0.5,0.2-0.9,0.5-1.2c0.3-0.3,0.7-0.5,1.2-0.5c0.5,0,0.9,0.2,1.2,0.5c0.3,0.3,0.5,0.7,0.5,1.2v7.8
			c0.2-0.4,0.4-0.7,0.5-0.9c3.7-5.8,8.5-8.7,14.2-8.7c0.5,0,0.9,0.2,1.2,0.5c0.3,0.3,0.5,0.7,0.5,1.2c0,0.5-0.2,0.9-0.5,1.2
			c-0.3,0.3-0.7,0.5-1.2,0.5c-3.9,0-7.3,1.9-10.3,5.8c-1.7,2.3-3.2,5.1-4.3,8.3c-0.1,0.2-0.1,0.4-0.1,0.6v15.6
			c0,0.5-0.2,0.9-0.5,1.2c-0.3,0.3-0.8,0.5-1.2,0.5c-0.5,0-0.9-0.2-1.2-0.5C486.1,376.5,485.9,376.1,485.9,375.6z"/>
		<path d="M521,372.1c-3.3-3.5-4.9-7.7-4.9-12.5c0-4.8,1.6-9,4.9-12.5c3.3-3.5,7.3-5.3,11.9-5.3s8.6,1.8,11.9,5.3
			c3.3,3.5,4.9,7.7,4.9,12.5c0,4.8-1.6,9-4.9,12.5c-3.3,3.5-7.3,5.3-11.9,5.3S524.3,375.6,521,372.1z M532.9,345.2
			c-3.6,0-6.8,1.4-9.4,4.2c-2.6,2.8-4,6.2-4,10.1c0,3.9,1.3,7.3,4,10.1c2.6,2.8,5.8,4.2,9.4,4.2c3.6,0,6.8-1.4,9.4-4.2
			c2.6-2.8,4-6.2,4-10.1c0-3.9-1.3-7.3-4-10.1C539.6,346.7,536.5,345.2,532.9,345.2z"/>
		<path d="M594.1,343.6v31c0,4.6-1.6,8.5-4.9,11.8c-3.3,3.3-7.2,4.9-11.9,4.9c-2.4,0-4.8-0.6-7.4-1.7c-1-0.7-1.2-1.4-0.7-2.3
			c0.5-1.1,1.3-1.4,2.3-0.8c1.8,0.9,3.8,1.3,5.8,1.3c3.7,0,6.8-1.3,9.4-3.8c2.6-2.6,3.9-5.7,3.9-9.4v-4.4c-1.5,2.2-3.4,3.9-5.7,5.1
			c-2.3,1.2-4.8,1.8-7.5,1.8c-4.6,0-8.6-1.7-11.8-5.2c-3.2-3.5-4.9-7.6-4.9-12.5c0-4.9,1.6-9,4.9-12.5c3.3-3.5,7.2-5.2,11.8-5.2
			c2.7,0,5.2,0.6,7.5,1.9c2.3,1.3,4.3,3,5.8,5.1v-5.2c0-0.5,0.2-0.9,0.5-1.2c0.4-0.3,0.8-0.5,1.2-0.5c0.5,0,0.9,0.2,1.2,0.5
			C593.9,342.7,594.1,343.1,594.1,343.6z M564.1,359.5c0,3.9,1.3,7.3,3.9,10.1c2.6,2.8,5.7,4.2,9.4,4.2c3.7,0,6.8-1.4,9.4-4.2
			c2.6-2.8,3.9-6.2,3.9-10.1c0-4-1.3-7.3-3.9-10c-2.6-2.7-5.7-4.1-9.4-4.1c-3.7,0-6.8,1.4-9.4,4.1
			C565.4,352.2,564.1,355.6,564.1,359.5z"/>
		<path d="M610.9,375.6v-32c0-0.5,0.2-0.9,0.5-1.2c0.3-0.3,0.8-0.5,1.2-0.5s0.9,0.2,1.2,0.5c0.3,0.3,0.5,0.7,0.5,1.2v7.8
			c0.2-0.4,0.4-0.7,0.5-0.9c3.7-5.8,8.5-8.7,14.2-8.7c0.5,0,0.9,0.2,1.2,0.5c0.3,0.3,0.5,0.7,0.5,1.2c0,0.5-0.2,0.9-0.5,1.2
			c-0.3,0.3-0.7,0.5-1.2,0.5c-3.9,0-7.3,1.9-10.3,5.8c-1.7,2.3-3.2,5.1-4.3,8.3c-0.1,0.2-0.2,0.4-0.2,0.6v15.6
			c0,0.5-0.2,0.9-0.5,1.2c-0.3,0.3-0.8,0.5-1.2,0.5s-0.9-0.2-1.2-0.5C611.1,376.5,610.9,376.1,610.9,375.6z"/>
		<path d="M669.6,342.3c0.3-0.3,0.7-0.5,1.2-0.5c0.5,0,0.9,0.2,1.2,0.5c0.3,0.3,0.5,0.7,0.5,1.2v32.1c0,0.5-0.2,0.9-0.5,1.2
			c-0.3,0.3-0.8,0.5-1.2,0.5c-0.5,0-0.9-0.2-1.2-0.5c-0.3-0.3-0.5-0.8-0.5-1.2v-5.3c-1.5,2.2-3.5,3.9-5.8,5.1
			c-2.3,1.3-4.8,1.9-7.5,1.9c-4.6,0-8.6-1.7-11.9-5.2c-3.3-3.5-4.9-7.7-4.9-12.5s1.6-9.1,4.9-12.6c3.3-3.5,7.3-5.2,11.9-5.2
			c2.7,0,5.2,0.6,7.5,1.9c2.3,1.3,4.3,3,5.8,5.1v-5.2C669.1,343.1,669.3,342.7,669.6,342.3z M642.4,359.6c0,4,1.3,7.3,4,10.1
			c2.6,2.8,5.8,4.2,9.4,4.2c3.6,0,6.8-1.4,9.4-4.2c2.6-2.8,3.9-6.1,3.9-10.1c0-4-1.3-7.4-3.9-10.2c-2.6-2.8-5.7-4.2-9.4-4.2
			c-3.7,0-6.8,1.4-9.4,4.2C643.7,352.3,642.4,355.6,642.4,359.6z"/>
		<path d="M689.6,377.4h-0.4c-0.7-0.1-1.2-0.5-1.5-1.3v-32.5c0-0.5,0.2-0.9,0.5-1.2c0.3-0.3,0.7-0.5,1.2-0.5c0.5,0,0.9,0.2,1.2,0.5
			c0.3,0.3,0.5,0.7,0.5,1.2v3.4c2.9-3.4,6.5-5.1,11-5.1c2.7,0,5.2,0.7,7.4,2.1c2.2,1.4,4,3.2,5.3,5.5c1.3-2.3,3.1-4.1,5.4-5.5
			c2.3-1.4,4.7-2.1,7.4-2.1c4,0,7.4,1.4,10.2,4.2c2.8,2.8,4.2,6.2,4.2,10.2v19.4c0,0.4-0.2,0.8-0.5,1.2c-0.3,0.3-0.8,0.5-1.2,0.5
			c-0.5,0-0.9-0.2-1.2-0.5c-0.3-0.3-0.5-0.7-0.5-1.2v-19.4c-0.1-3.1-1.2-5.7-3.3-7.8c-2.1-2.1-4.7-3.2-7.7-3.2c-3,0-5.6,1.1-7.7,3.3
			c-2.2,2.2-3.2,4.8-3.2,7.8v19.6l-0.1,0.1v0.1c-0.1,0.3-0.3,0.6-0.7,0.8c-0.4,0.2-0.7,0.3-1,0.3h-0.4l-0.6-0.3
			c-0.1,0-0.2-0.1-0.3-0.3c-0.2-0.2-0.3-0.3-0.3-0.4c0,0-0.1-0.1-0.1-0.2c0-0.1-0.1-0.1-0.1-0.2v-19.7c0-3.1-1.1-5.7-3.2-7.8
			c-2.1-2.1-4.7-3.2-7.8-3.2c-3,0-5.6,1.1-7.8,3.2c-2.1,2.1-3.2,4.8-3.2,7.8v19.4c0,0.6-0.3,1.1-0.8,1.4
			C690.1,377.3,689.8,377.4,689.6,377.4z"/>
		<path d="M783.5,342.3c0.3-0.3,0.7-0.5,1.2-0.5c0.5,0,0.9,0.2,1.2,0.5c0.3,0.3,0.5,0.7,0.5,1.2v32.1c0,0.5-0.2,0.9-0.5,1.2
			c-0.3,0.3-0.7,0.5-1.2,0.5c-0.5,0-0.9-0.2-1.2-0.5c-0.3-0.3-0.5-0.8-0.5-1.2v-5.3c-1.6,2.2-3.5,3.9-5.8,5.1
			c-2.3,1.3-4.8,1.9-7.5,1.9c-4.6,0-8.6-1.7-11.9-5.2c-3.3-3.5-4.9-7.7-4.9-12.5s1.6-9.1,4.9-12.6c3.3-3.5,7.2-5.2,11.9-5.2
			c2.7,0,5.2,0.6,7.5,1.9c2.3,1.3,4.3,3,5.8,5.1v-5.2C783,343.1,783.1,342.7,783.5,342.3z M756.3,359.6c0,4,1.3,7.3,4,10.1
			c2.6,2.8,5.8,4.2,9.4,4.2c3.7,0,6.8-1.4,9.4-4.2c2.6-2.8,3.9-6.1,3.9-10.1c0-4-1.3-7.4-3.9-10.2c-2.6-2.8-5.7-4.2-9.4-4.2
			c-3.6,0-6.8,1.4-9.4,4.2C757.6,352.3,756.3,355.6,756.3,359.6z"/>
		<path d="M804.3,372.2c-3.6-3.5-5.3-7.7-5.3-12.6c0-5,1.8-9.2,5.3-12.6c3.6-3.4,7.7-5.1,12.3-5.1c4.7,0,8.6,1.3,11.9,3.9
			c0.4,0.2,0.6,0.6,0.7,1.1c0,0.5-0.1,0.9-0.4,1.3c-0.7,0.8-1.5,0.9-2.4,0.3c-2.7-2.1-5.9-3.2-9.6-3.2c-3.8,0-7.1,1.4-10,4.2
			c-2.9,2.8-4.3,6.2-4.3,10.2c0,4,1.4,7.3,4.3,10.1c2.9,2.8,6.2,4.2,9.9,4.2c3.7,0,7-1,9.7-3.1c0.9-0.6,1.7-0.5,2.4,0.4
			c0.7,0.9,0.6,1.7-0.4,2.5c-3.2,2.5-7,3.8-11.2,3.8C812.2,377.4,807.9,375.7,804.3,372.2z"/>
		<path d="M843,333.6V332c0-0.5,0.2-0.9,0.5-1.2c0.3-0.3,0.8-0.5,1.2-0.5c0.5,0,0.9,0.2,1.3,0.5c0.4,0.3,0.5,0.8,0.5,1.2v1.7
			c0,0.5-0.2,1-0.5,1.3c-0.4,0.4-0.8,0.5-1.3,0.5c-0.5,0-0.9-0.2-1.2-0.5C843.2,334.6,843,334.2,843,333.6z M843,375.6v-32.1
			c0-0.5,0.2-0.9,0.5-1.2c0.3-0.3,0.8-0.5,1.3-0.5c0.5,0,0.9,0.2,1.3,0.5c0.3,0.3,0.5,0.7,0.5,1.2v32.1c0,0.5-0.2,0.9-0.5,1.2
			c-0.4,0.3-0.8,0.5-1.3,0.5c-0.5,0-0.9-0.2-1.2-0.5C843.2,376.5,843,376.1,843,375.6z"/>
		<path d="M877.6,341.8c4.6,0,8.6,1.8,11.9,5.3c3.3,3.5,4.9,7.7,4.9,12.5c0,4.8-1.6,9-4.9,12.5c-3.3,3.5-7.3,5.3-11.9,5.3
			c-4.6,0-8.6-1.8-11.9-5.3c-3.3-3.5-4.9-7.7-4.9-12.5c0-4.8,1.6-9,4.9-12.5C869,343.6,873,341.8,877.6,341.8z M887,369.7
			c2.6-2.8,4-6.2,4-10.1c0-3.9-1.3-7.3-4-10.1c-2.6-2.8-5.8-4.2-9.4-4.2c-3.6,0-6.8,1.4-9.4,4.2c-2.6,2.8-4,6.2-4,10.1
			c0,3.9,1.3,7.3,4,10.1c2.6,2.8,5.8,4.2,9.4,4.2C881.3,373.9,884.4,372.5,887,369.7z M881.9,329.5c0.5-0.5,0.8-1,0.8-1.3
			c0-0.4-0.3-0.7-1-1.1c-0.7-0.4-1.4-0.5-2.1-0.5c-0.7,0-1.4,0.4-2,1.3l-4.5,6.7c-0.2,0.3-0.3,0.6-0.3,0.8c0,0.4,0.4,0.6,1.1,0.6
			c0.8,0,1.5-0.3,2.1-0.9L881.9,329.5z"/>
		<path d="M913.2,375.9c-0.2,1-0.8,1.4-1.7,1.4h-0.4c-0.5-0.1-0.9-0.5-1.2-0.9c-0.1,0-0.1-0.1-0.1-0.2l-0.1-0.1v-32.4
			c0-0.5,0.2-0.9,0.5-1.2c0.3-0.3,0.8-0.5,1.2-0.5c0.5,0,0.9,0.2,1.2,0.5c0.3,0.3,0.5,0.7,0.5,1.2v3.4c2.8-3.4,6.4-5.1,10.6-5.1
			c4.2,0,7.8,1.4,10.6,4.2c2.8,2.8,4.2,6.2,4.2,10.2v19.3c0,0.5-0.2,0.9-0.5,1.2c-0.3,0.3-0.8,0.5-1.2,0.5c-0.5,0-0.9-0.2-1.2-0.5
			c-0.3-0.3-0.5-0.8-0.5-1.2v-19.3c0-3-1.1-5.6-3.2-7.7c-2.1-2.1-4.7-3.2-7.7-3.2c-3,0-5.6,1.1-7.7,3.2c-2.1,2.1-3.2,4.7-3.3,7.8
			V375.9z"/>
	</g>
</g>
</svg>
